<?xml version="1.0" encoding="utf-8"?>
<!-- Generator: Adobe Illustrator 19.2.0, SVG Export Plug-In . SVG Version: 6.00 Build 0)  -->
<svg version="1.1" id="Layer_1" xmlns="http://www.w3.org/2000/svg" xmlns:xlink="http://www.w3.org/1999/xlink" x="0px" y="0px"
	 viewBox="0 0 182.7 56.2" style="enable-background:new 0 0 182.7 56.2;" xml:space="preserve">
<style type="text/css">
	.st0{fill:#FFFFFF;stroke:#FFFFFF;stroke-width:3;stroke-miterlimit:10;}
</style>
<path class="st0" d="M29.6,5.3c0.4,0.1,0.7,0.2,0.9,0.3c0.2,0.1,0.3,0.3,0.3,0.5S30.7,6.6,30.6,7c-2.8,6.6-6.2,14.4-10.2,23.3
	c-4,9-7.3,16.6-10.1,22.8c-0.3,0.7-0.8,1-1.5,1c-0.3,0-0.6-0.1-1.1-0.2c-1-0.5-1.5-1-1.5-1.6c0-0.2,0.1-0.4,0.2-0.7l7.1-16.1
	L2.6,7.4C2.5,7,2.5,6.8,2.5,6.7c0-0.6,0.6-1.1,1.7-1.4C4.7,5.1,5.1,5,5.4,5c0.6,0,1,0.3,1.2,0.9l9.1,24.3C21.3,17.7,24.9,9.6,26.3,6
	c0.2-0.4,0.4-0.7,0.6-0.8c0.2-0.2,0.5-0.3,0.8-0.3c0.1,0,0.5,0,1.1,0.1C28.9,5.1,29.2,5.2,29.6,5.3z"/>
<path class="st0" d="M46.2,24.1c1.5,2.1,2.2,4.7,2.3,7.8C48.5,36,48,39.7,47,43s-2.5,6-4.5,8s-4.5,3-7.4,3c-2.5,0-4.5-1.1-5.9-3.3
	c-1.5-2.1-2.2-4.7-2.3-7.8c0-4.1,0.5-7.8,1.5-11.1s2.5-6,4.5-8s4.5-3,7.4-3C42.7,20.9,44.7,21.9,46.2,24.1z M40.5,46.9
	c1.3-2,2.3-4.3,2.8-6.9c0.6-2.6,0.8-5,0.8-7.2c0-2.4-0.4-4.3-1.1-5.7c-0.7-1.4-1.8-2.1-3.2-2.1c-2.2,0-3.9,1-5.2,2.9
	s-2.3,4.2-2.8,6.8c-0.6,2.6-0.8,5-0.8,7.1c0,2.4,0.4,4.3,1.1,5.8c0.7,1.5,1.8,2.2,3.2,2.2C37.5,49.9,39.2,48.9,40.5,46.9z"/>
<path class="st0" d="M80.2,30l-9.3,0.6c-1.2,0.1-1.9,0.2-2.2,0.4c-0.3,0.2-0.6,0.7-0.8,1.5c-0.1,0.8-0.1,1.2-0.1,1.4
	c0,0.4,0.1,0.7,0.4,0.8s0.8,0.1,1.7,0.1l7.9-0.5c-0.6,4.4-1.9,8-3.9,10.8s-4.6,4.3-7.9,4.3c-2.6,0-4.7-1.3-6.2-4s-2.2-6.2-2.2-10.4
	c0-3.3,0.5-7,1.4-11s2.4-7.5,4.5-10.5s4.8-4.4,8.1-4.4c1.9,0,3.4,0.5,4.5,1.5c1.1,1.1,1.8,2.7,2.3,4.8c0.1,0.5,0.3,0.8,0.5,1
	s0.5,0.3,0.8,0.3c0.4,0,0.9-0.1,1.4-0.3c0.7-0.2,1.2-0.4,1.4-0.6c0.2-0.2,0.4-0.5,0.4-0.9L82.8,14c-0.6-3-1.8-5.3-3.6-6.9
	c-1.8-1.6-4.2-2.4-7.1-2.5c-4.6,0-8.3,1.6-11.1,4.8s-4.9,7.2-6.1,12c-1.2,4.8-1.9,9.5-1.9,14.3c0.1,5.4,1.2,9.7,3.4,13.1s5.2,5,9,5
	c5.1,0,9.1-2,11.8-5.9c2.7-3.9,4.5-9.1,5.4-15.6c0.1-0.9,0-1.5-0.3-1.8C82,30.1,81.3,30,80.2,30z"/>
<path class="st0" d="M90,51.1c-0.1,1-0.3,1.6-0.5,1.8c-0.2,0.3-0.6,0.5-1.3,0.6c-1,0.2-1.5,0.3-1.7,0.3c-0.4,0-0.6-0.1-0.8-0.3
	c-0.1-0.2-0.1-0.6,0-1.2c0.9-6.8,1.6-12.5,2.2-17.2c0.5-4.7,0.8-8.6,0.8-11.8c0-1,0.1-1.6,0.3-1.8c0.2-0.3,0.7-0.5,1.4-0.6
	c1.2-0.2,1.8-0.3,1.9-0.3c0.4,0,0.7,0.1,0.9,0.3c0.1,0.2,0.2,0.6,0.1,1.3l-0.3,4c2.5-3.6,5.4-5.5,8.7-5.5c0.6,0,1.1,0.1,1.3,0.3
	c0.2,0.2,0.4,0.5,0.4,1.1c0,0.4,0,0.8-0.1,1.1c-0.1,0.9-0.3,1.4-0.5,1.7c-0.3,0.3-0.8,0.4-1.5,0.5c-2.5,0.3-4.6,1.4-6.3,3.4
	c-1.7,2-2.8,5.1-3.3,9.5L90,51.1z"/>
<path class="st0" d="M128.5,48.3c0.5,0.7,0.7,1.3,0.7,1.9c0,0.4-0.3,0.9-1,1.4c-0.7,0.6-1.5,1-2.5,1.5c-1,0.4-1.9,0.6-2.8,0.6
	c-1.2,0-2.1-0.5-2.6-1.6c-0.6-1.1-0.8-2.3-0.8-3.7c-1.2,1.8-2.4,3.2-3.7,4.1c-1.3,0.9-2.9,1.4-4.6,1.4c-2.3,0-4.1-1.2-5.5-3.4
	s-2.1-5.3-2.1-9.1c0-3.6,0.6-7,1.6-10.1s2.5-5.7,4.5-7.6c1.9-1.9,4.3-2.8,7-2.8c1.9,0,3.7,0.8,5.6,2.3V23c0.1-1,0.3-1.6,0.5-1.8
	c0.2-0.3,0.6-0.5,1.3-0.6c1.2-0.2,1.8-0.3,1.9-0.3c0.5,0,0.8,0.1,0.9,0.4c0.1,0.2,0.2,0.6,0.1,1.2c-2.4,15.6-3.5,25.1-3.5,28.6
	c0.7-0.4,1.6-1.2,2.6-2.2c0.6-0.6,1.1-0.9,1.3-0.9C127.6,47.3,128,47.6,128.5,48.3z M121.7,27.1c-0.8-0.7-1.5-1.3-2.3-1.6
	c-0.7-0.4-1.6-0.5-2.6-0.5c-2.2,0-4,0.9-5.3,2.8s-2.3,4.1-2.8,6.6c-0.6,2.5-0.9,4.8-0.9,6.9c0,5.6,1.4,8.4,4.2,8.4
	c2,0,3.8-1.3,5.4-3.8s2.6-5.8,3.1-9.9C121.2,31.4,121.6,28.4,121.7,27.1z"/>
<path class="st0" d="M157.1,2.1c0.4,0,0.7,0.1,0.9,0.3c0.1,0.2,0.2,0.6,0.1,1.2c-1.6,11.3-2.8,19.7-3.5,25.1s-1.2,9.8-1.5,13.3
	c-0.4,4.4-0.6,7.7-0.6,9.9c0,0.7-0.1,1.1-0.3,1.2c-0.2,0.1-0.7,0.3-1.4,0.5c-0.6,0.1-0.9,0.1-1.1,0.1c-0.6,0-1-0.2-1.2-0.6
	c-0.2-0.4-0.3-1.1-0.2-2.1c0-0.9,0.1-2,0.2-3.3c-0.9,1.9-2.1,3.4-3.6,4.5s-3.1,1.7-5,1.7c-2.3,0-4.1-1.2-5.5-3.4s-2.1-5.3-2.1-9.1
	c0-3.6,0.6-7,1.6-10.1s2.5-5.7,4.4-7.6c1.9-1.9,4.3-2.8,7-2.8c2,0,3.9,0.6,5.8,1.8c0.9-6.6,1.6-12.6,2.2-17.9
	c0.1-0.9,0.3-1.5,0.5-1.8s0.6-0.5,1.2-0.6C155.9,2.2,156.6,2.1,157.1,2.1z M150.7,26.7c-0.9-0.6-1.7-1-2.5-1.3
	c-0.7-0.3-1.6-0.4-2.5-0.4c-2.2,0-4,0.9-5.3,2.8s-2.3,4.1-2.8,6.6c-0.6,2.5-0.9,4.8-0.9,6.9c0,5.6,1.5,8.4,4.5,8.4
	c2,0,3.7-1.4,5.3-4.1c1.6-2.7,2.6-6,3-9.8L150.7,26.7z"/>
<path class="st0" d="M178.4,47.1c0,0.3-0.1,0.6-0.3,0.9c-1.1,1.9-2.4,3.3-3.9,4.4c-1.6,1.1-3.5,1.6-5.8,1.6c-3,0-5.2-1.1-6.7-3.3
	c-1.5-2.1-2.2-4.9-2.3-8.4c0-3.9,0.5-7.5,1.5-10.7c1-3.3,2.5-5.9,4.5-7.8c2-2,4.5-3,7.4-3c2.6,0,4.5,0.8,5.6,2.3
	c1.2,1.5,1.7,3.3,1.7,5.2c0,3.5-1.5,6.3-4.4,8.4c-2.9,2.1-7,3.4-12.2,3.9v1.3c0,2.4,0.4,4.4,1.2,5.8s2.1,2.2,3.8,2.2
	c1.3,0,2.4-0.3,3.2-0.9c0.8-0.6,1.6-1.6,2.4-2.8c0.4-0.7,0.8-1,1.3-1c0.3,0,0.6,0.1,0.9,0.2l0.9,0.5
	C178.1,46.3,178.4,46.7,178.4,47.1z M167.1,28.3c-1.3,2.2-2.3,4.9-2.9,8c7.8-0.8,11.7-3.3,11.7-7.5c0-2.5-1.1-3.8-3.3-3.8
	C170.3,25,168.4,26.1,167.1,28.3z"/>
</svg>
